<svg width="114" height="80" viewBox="0 0 114 80" fill="none" xmlns="http://www.w3.org/2000/svg">
<path d="M55.2527 32.6215C55.2527 32.6362 55.2427 32.6508 55.237 32.6655C55.2085 32.7442 55.18 32.8255 55.1587 32.9082C55.1145 33.0335 55.0774 33.1628 55.039 33.2922C55.0276 33.3322 55.0176 33.3708 55.0047 33.4108C54.9862 33.4815 54.9677 33.5522 54.952 33.6228C54.8765 33.9202 54.8095 34.2255 54.7611 34.5322C54.7425 34.6548 54.724 34.7815 54.7084 34.9068C54.6927 35.0322 54.677 35.1735 54.6642 35.2988C54.6571 35.3468 54.6542 35.3962 54.6514 35.4482C54.6385 35.5722 54.6328 35.6948 54.6271 35.8175C54.6271 35.8468 54.6271 35.8788 54.6271 35.9108C54.6271 36.0575 54.6186 36.2015 54.6186 36.3468V39.5468L53.5983 39.3442C52.8015 39.1854 51.9903 39.0993 51.1758 39.0868C44.5381 38.9762 38.6358 43.7535 38.3593 50.2002V50.2215C36.2802 48.7022 34.7598 46.6136 34.01 44.247C33.2603 41.8805 33.3186 39.354 34.1769 37.0199C35.0353 34.6859 36.6508 32.6607 38.7981 31.2269C40.9454 29.7931 43.5175 29.0221 46.1555 29.0215C47.0235 29.0227 47.8891 29.1062 48.739 29.2708C51.2213 29.7485 53.4916 30.9163 55.2527 32.6215Z" fill="#7AC943"/>
<path d="M79.9522 36.3457V53.9083C79.9522 55.465 79.6245 57.0065 78.9877 58.4447C78.351 59.8829 77.4177 61.1897 76.2412 62.2904C75.0647 63.3911 73.668 64.2642 72.1309 64.8598C70.5937 65.4554 68.9462 65.7618 67.2825 65.7617L54.0043 63.1337L52.0735 62.755C51.4629 62.6354 50.8437 62.5583 50.221 62.5243C47.0048 62.3354 43.9864 61.0067 41.7803 58.8088C39.5742 56.6109 38.3463 53.7089 38.3464 50.6937C38.3464 50.5354 38.3493 50.3781 38.355 50.2217C39.8911 51.3465 41.6852 52.1224 43.5961 52.4883C44.4461 52.6529 45.3117 52.7365 46.1797 52.7377C49.2923 52.734 52.2947 51.6585 54.6142 49.7163V36.3457C54.6142 36.2003 54.6142 36.0563 54.6228 35.9097C54.6228 35.8777 54.6228 35.8457 54.6228 35.8163C54.6228 35.6937 54.6342 35.571 54.647 35.447C54.647 35.395 54.647 35.3457 54.6598 35.2977C54.6727 35.1643 54.6841 35.031 54.704 34.9057C54.724 34.7803 54.7382 34.6537 54.7567 34.531C54.8066 34.2243 54.8722 33.919 54.9477 33.6217C54.9634 33.551 54.9819 33.4803 55.0004 33.4097C55.0132 33.3697 55.0232 33.331 55.0346 33.291C55.0731 33.1577 55.1101 33.0323 55.1543 32.907C55.1757 32.8243 55.2042 32.743 55.2327 32.6643C55.2327 32.6497 55.2441 32.635 55.2484 32.6203C55.878 30.8472 56.9468 29.2385 58.3677 27.9257V15.5643C58.3806 15.1454 58.5675 14.7476 58.8888 14.4555C59.2101 14.1634 59.6404 14 60.0884 14C60.5364 14 60.9667 14.1634 61.288 14.4555C61.6092 14.7476 61.7962 15.1454 61.8091 15.5643V25.6537C63.7405 24.788 65.8748 24.3946 68.0128 24.5101C70.1508 24.6256 72.2226 25.2462 74.0346 26.3141C75.8467 27.382 77.3399 28.8622 78.3747 30.6165C79.4096 32.3708 79.9523 34.3419 79.9522 36.3457Z" fill="#808080"/>
<path d="M79.9522 36.3455V53.9082C79.9522 56.62 78.9584 59.2497 77.1366 61.3588C75.3149 63.4678 72.7753 64.9287 69.9416 65.4976C67.1087 64.9279 64.5701 63.4667 62.7492 61.3577C60.9283 59.2487 59.9351 56.6194 59.9352 53.9082V36.3455C59.935 33.6342 60.9282 31.0047 62.7491 28.8955C64.57 26.7863 67.1086 25.3248 69.9416 24.7549C72.7756 25.3238 75.3153 26.7848 77.1371 28.8942C78.9589 31.0035 79.9525 33.6336 79.9522 36.3455Z" fill="#FF931E"/>
<path opacity="0.8" d="M54.6144 39.5459V49.7192C52.2948 51.6614 49.2925 52.7369 46.1798 52.7406C45.3117 52.7385 44.4461 52.6541 43.5963 52.4886C41.6858 52.1225 39.8922 51.3465 38.3566 50.2219V50.2046C38.6416 43.7592 44.5354 38.9806 51.173 39.0912C51.9875 39.1037 52.7988 39.1899 53.5955 39.3486L54.6144 39.5459Z" fill="#7AC943"/>
<path opacity="0.8" d="M79.9522 36.3457V53.9083C79.9522 55.465 79.6245 57.0065 78.9877 58.4447C78.351 59.8829 77.4177 61.1897 76.2412 62.2904C75.0647 63.3911 73.668 64.2642 72.1309 64.8598C70.5937 65.4554 68.9462 65.7618 67.2825 65.7617L54.0043 63.1337L52.0735 62.755C51.4629 62.6354 50.8437 62.5583 50.221 62.5243C47.0048 62.3354 43.9864 61.0067 41.7803 58.8088C39.5742 56.6109 38.3463 53.7089 38.3464 50.6937C38.3464 50.5354 38.3493 50.3781 38.355 50.2217C39.8911 51.3465 41.6852 52.1224 43.5961 52.4883C44.4461 52.6529 45.3117 52.7365 46.1797 52.7377C49.2923 52.734 52.2947 51.6585 54.6142 49.7163V36.3457C54.6142 36.2003 54.6142 36.0563 54.6228 35.9097C54.6228 35.8777 54.6228 35.8457 54.6228 35.8163C54.6228 35.6937 54.6342 35.571 54.647 35.447C54.647 35.395 54.647 35.3457 54.6598 35.2977C54.6727 35.1643 54.6841 35.031 54.704 34.9057C54.724 34.7803 54.7382 34.6537 54.7567 34.531C54.8066 34.2243 54.8722 33.919 54.9477 33.6217C54.9634 33.551 54.9819 33.4803 55.0004 33.4097C55.0132 33.3697 55.0232 33.331 55.0346 33.291C55.0731 33.1577 55.1101 33.0323 55.1543 32.907C55.1757 32.8243 55.2042 32.743 55.2327 32.6643C55.2327 32.6497 55.2441 32.635 55.2484 32.6203C55.878 30.8472 56.9468 29.2385 58.3677 27.9257V15.5643C58.3806 15.1454 58.5675 14.7476 58.8888 14.4555C59.2101 14.1634 59.6404 14 60.0884 14C60.5364 14 60.9667 14.1634 61.288 14.4555C61.6092 14.7476 61.7962 15.1454 61.8091 15.5643V25.6537C63.7405 24.788 65.8748 24.3946 68.0128 24.5101C70.1508 24.6256 72.2226 25.2462 74.0346 26.3141C75.8467 27.382 77.3399 28.8622 78.3747 30.6165C79.4096 32.3708 79.9523 34.3419 79.9522 36.3457Z" fill="#FF931E"/>
<path d="M74.7909 32.395C74.5649 32.395 74.341 32.3533 74.1322 32.2724C73.9233 32.1914 73.7336 32.0728 73.5737 31.9232C73.4139 31.7737 73.2871 31.5961 73.2006 31.4007C73.114 31.2053 73.0695 30.9958 73.0695 30.7843V15.5643C73.0824 15.1454 73.2693 14.7476 73.5906 14.4555C73.9119 14.1634 74.3422 14 74.7902 14C75.2382 14 75.6685 14.1634 75.9898 14.4555C76.3111 14.7476 76.498 15.1454 76.5109 15.5643V30.7843C76.5111 30.9958 76.4668 31.2052 76.3804 31.4006C76.2941 31.596 76.1674 31.7736 76.0077 31.9232C75.8479 32.0727 75.6582 32.1914 75.4495 32.2724C75.2407 32.3533 75.0169 32.395 74.7909 32.395Z" fill="#FF931E"/>
</svg>
