<svg width="87" height="87" viewBox="0 0 87 87" fill="none" xmlns="http://www.w3.org/2000/svg">
<path d="M43.5 67.1577C56.5454 67.1577 67.1579 56.5452 67.1579 43.4998C67.1579 30.4544 56.5454 19.8419 43.5 19.8419C30.4546 19.8419 19.8421 30.4544 19.8421 43.4998C19.8421 56.5452 30.4546 67.1577 43.5 67.1577ZM36.1917 42.1059L46.0491 32.2486C46.4336 31.8641 46.9383 31.6709 47.443 31.6709C47.9477 31.6709 48.4525 31.8641 48.8369 32.2486C49.6077 33.0194 49.6077 34.2654 48.8369 35.0362L40.3732 43.4998L48.8368 51.9634C49.6076 52.7343 49.6076 53.9803 48.8368 54.7511C48.066 55.5219 46.82 55.5219 46.0491 54.7511L36.1917 44.8936C35.4208 44.1228 35.4208 42.8769 36.1917 42.1059Z" fill="#FF931E"/>
</svg>
