<svg width="87" height="87" viewBox="0 0 87 87" fill="none" xmlns="http://www.w3.org/2000/svg">
<path d="M43.5001 19.8423C30.4547 19.8423 19.8422 30.4548 19.8422 43.5002C19.8422 56.5456 30.4547 67.1581 43.5001 67.1581C56.5454 67.1581 67.158 56.5456 67.158 43.5002C67.158 30.4548 56.5454 19.8423 43.5001 19.8423ZM50.8084 44.8941L40.9509 54.7514C40.5665 55.1359 40.0618 55.3291 39.557 55.3291C39.0524 55.3291 38.5476 55.1359 38.1632 54.7514C37.3923 53.9806 37.3923 52.7346 38.1632 51.9638L46.6269 43.5002L38.1633 35.0366C37.3924 34.2657 37.3924 33.0197 38.1633 32.2489C38.9341 31.4781 40.1801 31.4781 40.9509 32.2489L50.8084 42.1064C51.5792 42.8772 51.5792 44.1231 50.8084 44.8941Z" fill="#FF931E"/>
</svg>
